<?xml version="1.0"?>
<svg xmlns="http://www.w3.org/2000/svg" xmlns:xlink="http://www.w3.org/1999/xlink" xmlns:svgjs="http://svgjs.com/svgjs" version="1.1" width="512" height="512" x="0" y="0" viewBox="0 0 512 512" style="enable-background:new 0 0 512 512" xml:space="preserve" class=""><g><path xmlns="http://www.w3.org/2000/svg" d="M155,82.112a6,6,0,0,0-6,6v66.616a6,6,0,0,0,12,0V88.112A6,6,0,0,0,155,82.112Z" fill="#333366" data-original="#000000" style=""/><path xmlns="http://www.w3.org/2000/svg" d="M155,61.156a6,6,0,0,0-6,6v3.2a6,6,0,1,0,12,0v-3.2A6,6,0,0,0,155,61.156Z" fill="#333366" data-original="#000000" style=""/><path xmlns="http://www.w3.org/2000/svg" d="M419.353,184.826a16.285,16.285,0,0,1-.072-15.835l39.542-71.346A9.849,9.849,0,0,0,450.087,83H285V64.714C285,49.152,272,36,256.44,36H138V31.646a20.5,20.5,0,1,0-41,0V319H57.919A6.077,6.077,0,0,0,52,325.167v.615c0,16.958,6.926,29.444,18.508,34.723a20.974,20.974,0,0,0-9.929,36.034,22.473,22.473,0,0,0-6.83,17.021A22.123,22.123,0,0,0,60.92,429a21.842,21.842,0,0,0,4.339,35.458,21.461,21.461,0,0,0-4.145,12.693A21.889,21.889,0,0,0,83.084,499h46.73c17.716,0,34.893-.857,50.284-10.406A83.37,83.37,0,0,1,224.054,476H231v19a6.266,6.266,0,0,0,6.3,6h63.389A6.272,6.272,0,0,0,307,495V348.092A6.35,6.35,0,0,0,300.691,342H237.3a6.343,6.343,0,0,0-6.3,6.092V357h-1.536a34.433,34.433,0,0,1-31.587-19.99C192.32,325.087,182.661,319,169.169,319H138V223H273v18.094A27.7,27.7,0,0,0,300.883,269H450.017a9.791,9.791,0,0,0,8.692-14.671ZM109,31.646a8.5,8.5,0,1,1,17,0V360H109ZM64.272,331H97v20H83.938C69.343,351,65.324,339,64.272,331Zm104.9,0c11.18,0,15.287,5.663,17.831,11.12A46.73,46.73,0,0,0,229.464,369H231v13a6,6,0,0,0,6,6h0a6,6,0,0,0,6-6V354h52V489H243V424a6,6,0,0,0-6-6h0a6,6,0,0,0-6,6v40h-7.094c-17.9,0-35.242,5.383-50.552,14.653-12.625,7.644-27.8,8.347-43.54,8.347H83.473a10.242,10.242,0,0,1-10.333-9.274A10.007,10.007,0,0,1,83.084,467h19a6.166,6.166,0,0,0,6.249-5.816,6,6,0,0,0-6-6.184H75.767a10.017,10.017,0,0,1-10.022-10.591A10.262,10.262,0,0,1,76.121,435H92.1a6.168,6.168,0,0,0,6.249-5.816,6,6,0,0,0-6-6.184H76.266a10.518,10.518,0,0,1-10.5-11.422A10.731,10.731,0,0,1,76.575,402H92.1a6.168,6.168,0,0,0,6.249-5.816,6,6,0,0,0-6-6.184H75.045a9.212,9.212,0,0,1-9.3-8.391A9.01,9.01,0,0,1,74.732,372h57.947a18.325,18.325,0,0,0,18.272-16.354,6,6,0,0,0-11.93-1.31A6.282,6.282,0,0,1,138,357.117V331ZM273,88.814V211H138V48H256.44A16.959,16.959,0,0,1,273,64.714ZM300.883,257A15.686,15.686,0,0,1,285,241.094V95H446.672l-37.887,68.209a28.069,28.069,0,0,0,.124,27.409L446.566,257Z" fill="#333366" data-original="#000000" style=""/></g></svg>
