<?xml version="1.0"?>
<svg xmlns="http://www.w3.org/2000/svg" xmlns:xlink="http://www.w3.org/1999/xlink" xmlns:svgjs="http://svgjs.com/svgjs" version="1.1" width="512" height="512" x="0" y="0" viewBox="0 0 512 512" style="enable-background:new 0 0 512 512" xml:space="preserve" class=""><g><g xmlns="http://www.w3.org/2000/svg" id="XMLID_455_"><path id="XMLID_112_" d="m136.188 87.422v364.142c0 8.284 6.716 15 15 15h209.624c8.284 0 15-6.716 15-15v-364.142c0-8.284-6.716-15-15-15h-209.624c-8.284 0-15 6.716-15 15zm30 15h179.624v334.142h-179.624z" fill="#333366" data-original="#000000" style=""/><path id="XMLID_111_" d="m303.45 232.819v-83.733c0-8.284-6.716-15-15-15h-64.9c-8.284 0-15 6.716-15 15v83.733c0 8.284 6.716 15 15 15h64.899c8.285 0 15.001-6.716 15.001-15zm-30-15h-34.9v-53.733h34.899v53.733z" fill="#333366" data-original="#000000" style=""/><path id="XMLID_110_" d="m317.275 287.921h-31.151c-8.284 0-15 6.716-15 15s6.716 15 15 15h31.151c8.284 0 15-6.716 15-15s-6.715-15-15-15z" fill="#333366" data-original="#000000" style=""/><path id="XMLID_109_" d="m435.935 52.104c1.306.352 2.617.52 3.908.52 6.616 0 12.673-4.412 14.475-11.105 2.153-8-2.586-16.23-10.585-18.383-56.231-15.136-121.148-23.136-187.733-23.136s-131.502 8-187.732 23.136c-8 2.153-12.739 10.384-10.585 18.383s10.383 12.739 18.383 10.585c3.772-1.015 7.595-1.988 11.448-2.936v432.832h-14.105c-8.284 0-15 6.716-15 15s6.716 15 15 15h365.183c8.284 0 15-6.716 15-15s-6.716-15-15-15h-14.105v-432.831c3.852.947 7.676 1.92 11.448 2.935zm-41.449 429.896h-276.972v-439.383c43.255-8.293 90.369-12.617 138.486-12.617s95.231 4.324 138.486 12.617z" fill="#333366" data-original="#000000" style=""/></g></g></svg>
