<svg id="Capa_2" data-name="Capa 2" xmlns="http://www.w3.org/2000/svg" viewBox="0 0 24 24"><defs><style>.cls-1{fill:none;stroke:#000;stroke-miterlimit:10;stroke-width:1.5px;}</style></defs><circle class="cls-1" cx="12.22" cy="12.55" r="9.59"/><path d="M11,12.47c.15,0,.31.09.45.15a1,1,0,0,1,.66.81,3.45,3.45,0,0,1,0,1.5,1.42,1.42,0,0,1-1.36,1H6.34a1,1,0,0,1-1-1.06c0-.65,0-1.31,0-2V10.24a1.1,1.1,0,0,1,.24-.76,1,1,0,0,1,.77-.34h3.85a2.9,2.9,0,0,1,.72.09,1.26,1.26,0,0,1,1,1A3.12,3.12,0,0,1,12,11.4,1.17,1.17,0,0,1,11,12.47Zm-3.4.78c0,.25,0,.48,0,.71s.07.28.26.28c.56,0,1.12,0,1.68,0a.4.4,0,0,0,.29-.14.58.58,0,0,0,.07-.57.45.45,0,0,0-.46-.27Zm1.83-1.5a.37.37,0,0,0,.34-.23c.11-.32.05-.66-.42-.68H7.86a.27.27,0,0,0-.28.22v.7"/><path d="M18.72,10.84H15.2a.56.56,0,0,0-.23,0,.23.23,0,0,0-.16.14.21.21,0,0,0,.06.2.65.65,0,0,0,.27.15l1.93.52c.28.08.57.15.85.24A1.47,1.47,0,0,1,19,13.34,3.49,3.49,0,0,1,19,15a1.25,1.25,0,0,1-1.2.93c-.37,0-.75,0-1.13,0H12.7v-1.7h3.88c.11,0,.23,0,.26-.17a.25.25,0,0,0-.2-.29l-1.09-.32L13.76,13a1.42,1.42,0,0,1-1-1.14,3.83,3.83,0,0,1-.05-1.47A1.38,1.38,0,0,1,14,9.15c.54,0,1.08,0,1.62,0h3.09Z"/></svg>