<?xml version="1.0"?>
<svg xmlns="http://www.w3.org/2000/svg" xmlns:xlink="http://www.w3.org/1999/xlink" xmlns:svgjs="http://svgjs.com/svgjs" version="1.1" width="512" height="512" x="0" y="0" viewBox="0 0 512 512" style="enable-background:new 0 0 512 512" xml:space="preserve" class=""><g><g xmlns="http://www.w3.org/2000/svg" id="outline"><path d="M479.6,448H472V284a44.049,44.049,0,0,0-44-44H400.708a107.664,107.664,0,0,0,21.981-12.09l29.96-21.4a8,8,0,0,0,1.6-11.51,137.362,137.362,0,0,1-20.605-35.568A28,28,0,0,0,428,104h-4V96h32a8,8,0,0,0,0-16H431.545A72,72,0,0,0,288,88a8,8,0,0,0,8,8v8h-4a28,28,0,0,0-5.639,55.43A137.505,137.505,0,0,1,265.752,195a8,8,0,0,0,1.6,11.506l29.959,21.4A107.671,107.671,0,0,0,319.292,240H292a44.049,44.049,0,0,0-44,44v88.686l-2.343-2.343A8,8,0,0,0,240,368H144V352h60a20.023,20.023,0,0,0,20-20V212a20.023,20.023,0,0,0-20-20H36a20.023,20.023,0,0,0-20,20V332a20.023,20.023,0,0,0,20,20H96v16H24a8,8,0,0,0-8,8V488a8,8,0,0,0,8,8H479.6a8,8,0,0,0,8-8V456A8,8,0,0,0,479.6,448ZM432,256.285A28.044,28.044,0,0,1,456,284v52H438.979A57.871,57.871,0,0,0,432,293.676Zm0,97.6.944-1.889H456v96H432ZM416,256v16H400V256Zm12-136a11.993,11.993,0,0,1,.582,23.972A137.97,137.97,0,0,1,424.473,120Zm8.66,78.269L413.39,214.89a91.729,91.729,0,0,1-20.353,10.957,67.524,67.524,0,0,1-1.014-10.471,64.192,64.192,0,0,0,30.436-41.465A153.118,153.118,0,0,0,436.66,198.269ZM384,256v16H336V256Zm-44.1-16q.231-.719.447-1.436c.016-.052.03-.107.046-.159l0-.012,0-.018c.5-1.617.955-3.3,1.356-5a82.868,82.868,0,0,0,1.882-11.5,63.956,63.956,0,0,0,32.74,0,83.475,83.475,0,0,0,3.229,16.516l0,.009,0,0c.012.036.02.073.032.109q.225.747.465,1.493ZM360,208a48.054,48.054,0,0,1-48-48V104.09a181.021,181.021,0,0,0,96,31.783V160A48.054,48.054,0,0,1,360,208ZM328.919,96H408v23.872A165.022,165.022,0,0,1,328.919,96ZM360,32a56.089,56.089,0,0,1,55.431,48H304.569A56.089,56.089,0,0,1,360,32ZM280,132a12.008,12.008,0,0,1,12-12h3.527a137.986,137.986,0,0,1-4.109,23.971A12.005,12.005,0,0,1,280,132Zm26.609,82.89-23.272-16.623a153.261,153.261,0,0,0,14.2-24.382,64.194,64.194,0,0,0,30.446,41.494,67.6,67.6,0,0,1-1,10.473A91.677,91.677,0,0,1,306.609,214.89ZM304,256h16v16H304Zm-1.344,44.438A8,8,0,0,0,304,296v-8H416v8a8,8,0,0,0,1.344,4.438,41.8,41.8,0,0,1,2.6,41.783l-3.1,6.2A7.994,7.994,0,0,0,416,352v96H304V352a7.994,7.994,0,0,0-.845-3.578l-3.1-6.2A41.8,41.8,0,0,1,302.656,300.438ZM264,284a28.044,28.044,0,0,1,24-27.715v37.391A57.871,57.871,0,0,0,281.021,336H264Zm0,68h23.056l.944,1.889v58.8l-24-24Zm-40,32h12.687L288,435.313V448H224ZM80,304V240h80v64Zm48,16v48H112V320ZM36,336a4,4,0,0,1-4-4V212a4,4,0,0,1,4-4H204a4,4,0,0,1,4,4V332a4,4,0,0,1-4,4H144V320h24a8,8,0,0,0,8-8V232a8,8,0,0,0-8-8H72a8,8,0,0,0-8,8v80a8,8,0,0,0,8,8H96v16Zm-4,96H96V416H32V384H208v32H112v16h96v16H32Zm439.6,48H32V464H471.6Z" fill="#333366" data-original="#000000" style=""/><circle cx="336" cy="144" r="8" fill="#333366" data-original="#000000" style=""/><circle cx="384" cy="144" r="8" fill="#333366" data-original="#000000" style=""/><path d="M370.344,170.343a14.646,14.646,0,0,1-20.688,0,8,8,0,1,0-11.312,11.314,30.661,30.661,0,0,0,43.312,0,8,8,0,1,0-11.312-11.314Z" fill="#333366" data-original="#000000" style=""/><path d="M328,416h64a8,8,0,0,0,8-8V344a8,8,0,0,0-8-8H328a8,8,0,0,0-8,8v64A8,8,0,0,0,328,416Zm8-64h48v16H336Zm0,32h48v16H336Z" fill="#333366" data-original="#000000" style=""/></g></g></svg>
