<svg id="Capa_2" data-name="Capa 2" xmlns="http://www.w3.org/2000/svg" viewBox="0 0 24 24"><path d="M5.17,21.66a5.79,5.79,0,0,1-1.1-.41,2.61,2.61,0,0,1-1.31-2.1l0,0a.75.75,0,0,0,.07.12A3.25,3.25,0,0,0,5.51,20.5h13a3.25,3.25,0,0,0,2.65-1.29l.06-.07h0a2.59,2.59,0,0,1-.39,1.22,2.66,2.66,0,0,1-1.93,1.28.32.32,0,0,0-.09,0Z"/><path d="M5.85,3.11c.07-.55.24-.76.59-.77s.52.21.6.78h1c.08-.58.26-.79.62-.78s.52.25.57.78h1a.69.69,0,0,1,.24-.65.67.67,0,0,1,.36-.12c.35,0,.5.2.59.77h1a.62.62,0,0,1,.63-.77c.34,0,.49.23.55.77h1c0-.24,0-.49.22-.64a.67.67,0,0,1,.38-.13c.36,0,.53.23.58.77H17a.64.64,0,0,1,.22-.65.71.71,0,0,1,.37-.12c.34,0,.47.18.59.8.21,0,.43,0,.65,0a2.72,2.72,0,0,1,2.45,2.76c0,3.74,0,7.49,0,11.23a2.7,2.7,0,0,1-2.16,2.72,3.68,3.68,0,0,1-.66.06H5.55A2.72,2.72,0,0,1,2.77,17.6a3.26,3.26,0,0,1,0-.54c0-3.69,0-7.38,0-11.06A2.77,2.77,0,0,1,4.94,3.19C5.23,3.14,5.54,3.14,5.85,3.11Zm3.4,1.43c0,.46,0,.92,0,1.37a.3.3,0,0,0,.08.16.9.9,0,0,1,0,1.24A.9.9,0,0,1,8,6.07a.23.23,0,0,0,.08-.14c0-.46,0-.92,0-1.39H7V4.7c0,.4,0,.81,0,1.21a.3.3,0,0,0,.08.16A.9.9,0,0,1,5.82,7.32a.88.88,0,0,1,0-1.24.29.29,0,0,0,.08-.14c0-.47,0-.93,0-1.4a1.69,1.69,0,0,0-1.19.25A1.42,1.42,0,0,0,4.13,6V17.1a1.35,1.35,0,0,0,1.4,1.43h13a1.52,1.52,0,0,0,.63-.14,1.33,1.33,0,0,0,.76-1.32V13c0-2.32,0-4.63,0-6.95a1.41,1.41,0,0,0-1.75-1.44c0,.44,0,.9,0,1.35a.27.27,0,0,0,.08.16.9.9,0,0,1,0,1.26A.9.9,0,0,1,16.9,6.06S17,6,17,5.94c0-.47,0-.93,0-1.4H15.92c0,.43,0,.85,0,1.27a.84.84,0,0,0,.1.29,2.16,2.16,0,0,1,.2.51.84.84,0,0,1-.61.91.89.89,0,0,1-1-.35.91.91,0,0,1,.09-1.1s.08-.09.08-.14c0-.46,0-.92,0-1.39H13.69V5.83s0,.07,0,.09a.42.42,0,0,0,.09.16.9.9,0,1,1-1.35,0s.09-.09.09-.14V4.54H11.47V5.91a.6.6,0,0,0,.08.16.89.89,0,0,1,0,1.24.9.9,0,0,1-1.3-1.24.23.23,0,0,0,.08-.14c0-.46,0-.92,0-1.39ZM9,4.79V3.34c0-.14,0-.29,0-.43a.27.27,0,0,0-.28-.27.28.28,0,0,0-.29.26V6.56a.65.65,0,0,0,0,.2A.26.26,0,0,0,8.69,7,.27.27,0,0,0,9,6.71a1.08,1.08,0,0,0,0-.18Zm6.67,0V3a1.21,1.21,0,0,0,0-.19.26.26,0,0,0-.29-.21.27.27,0,0,0-.27.24V6.56c0,.06,0,.13,0,.16a.58.58,0,0,0,.25.22c.12,0,.23,0,.28-.16a.51.51,0,0,0,0-.22Zm-4.44,0V3c0-.22-.11-.34-.29-.34s-.29.12-.29.34V6.62h0c0,.2.12.33.3.32a.27.27,0,0,0,.27-.31C11.18,6,11.18,5.42,11.18,4.81Zm1.65,0c0,.62,0,1.23,0,1.85a.28.28,0,0,0,.28.31.26.26,0,0,0,.28-.26c0-1.26,0-2.53,0-3.79a.26.26,0,0,0-.28-.26.27.27,0,0,0-.28.27.91.91,0,0,0,0,.17C12.82,3.65,12.82,4.22,12.83,4.79Zm-6.09,0c0-.57,0-1.14,0-1.71a1.77,1.77,0,0,0,0-.23.28.28,0,0,0-.54,0,.82.82,0,0,0,0,.22c0,1.16,0,2.32,0,3.49a.82.82,0,0,0,0,.22.28.28,0,0,0,.54,0,1.62,1.62,0,0,0,0-.22C6.74,5.94,6.74,5.37,6.74,4.79Zm11.11,0V3.06c0-.29-.1-.42-.29-.42s-.29.13-.29.41V6.52c0,.08,0,.17,0,.22a.51.51,0,0,0,.24.2.22.22,0,0,0,.28-.16.63.63,0,0,0,0-.24C17.85,6,17.85,5.39,17.85,4.81Z"/><path d="M11.31,14.59l.15-.16,3.95-4.31a.93.93,0,0,1,.72-.35.81.81,0,0,1,.77.48.79.79,0,0,1-.09.9c-.22.27-.46.52-.69.77-1.32,1.43-2.63,2.87-3.94,4.3a.92.92,0,0,1-1.41.13L7.41,13.86a.86.86,0,0,1-.15-1.34.87.87,0,0,1,1.18-.06l1.63,1.21Z"/></svg>