<svg id="Capa_1" data-name="Capa 1" xmlns="http://www.w3.org/2000/svg" viewBox="0 0 40 40"><defs><style>.cls-1{fill:#fe3231;}</style></defs><title>ICONOS LA BANDERA</title><path class="cls-1" d="M9.3,11.41A2.11,2.11,0,1,0,7.19,9.3,2.12,2.12,0,0,0,9.3,11.41Z"/><path class="cls-1" d="M8.66,21.53l.64.41.63-.41c.36-.23,8.66-5.65,8.66-12.23A9.3,9.3,0,1,0,0,9.3C0,15.88,8.31,21.3,8.66,21.53ZM9.3,4.84A4.46,4.46,0,1,1,4.84,9.3,4.46,4.46,0,0,1,9.3,4.84Z"/><path class="cls-1" d="M33.75,22a4.69,4.69,0,1,0-4.69-4.68A4.69,4.69,0,0,0,33.75,22Z"/><path class="cls-1" d="M39.31,21.57a7,7,0,0,1-11.12,0,4.34,4.34,0,0,0-.69,2.34v5.78H40V23.91A4.34,4.34,0,0,0,39.31,21.57Z"/><path class="cls-1" d="M29.94,40h7.62l.71-8h-9Z"/><path class="cls-1" d="M3.91,37.66a1.57,1.57,0,1,1,0-3.13H14.69a3.91,3.91,0,0,0,0-7.81H12a1.56,1.56,0,0,1-1.56-1.56V24.3H8.13v.86a3.91,3.91,0,0,0,3.9,3.9h2.66a1.57,1.57,0,0,1,0,3.13H3.91a3.91,3.91,0,1,0,0,7.81H27.59l-.21-2.34Z"/></svg>