<svg id="Capa_1" data-name="Capa 1" xmlns="http://www.w3.org/2000/svg" viewBox="0 0 40 40"><defs><style>.cls-1{fill:#fe3231;}</style></defs><title>ICONOS LA BANDERA</title><path class="cls-1" d="M20,32.11a6.86,6.86,0,1,0-6.85-6.85A6.86,6.86,0,0,0,20,32.11Zm-4-7.93a1.16,1.16,0,0,1,1.64,0l1.5,1.5,3.3-3.3a1.16,1.16,0,0,1,1.64,0A1.15,1.15,0,0,1,24,24l-4.12,4.12a1.15,1.15,0,0,1-.82.34,1.13,1.13,0,0,1-.81-.34L16,25.81A1.15,1.15,0,0,1,16,24.18Z"/><path class="cls-1" d="M.91,36.19a3.74,3.74,0,0,0,3.73,3.73H35.36a3.74,3.74,0,0,0,3.73-3.73V12.9H.91ZM20,16.1a9.16,9.16,0,1,1-9.16,9.16A9.17,9.17,0,0,1,20,16.1Z"/><path class="cls-1" d="M39.09,10.59V7A3.75,3.75,0,0,0,35.36,3.3H33.25V5.38a1.16,1.16,0,0,1-2.31,0V3.3H28.68V5.38a1.16,1.16,0,0,1-2.31,0V3.3H13.63V5.38a1.16,1.16,0,0,1-2.31,0V3.3H9.06V5.38a1.16,1.16,0,0,1-2.31,0V3.3H4.64A3.75,3.75,0,0,0,.91,7v3.55Z"/><path class="cls-1" d="M33.25,1.23a1.16,1.16,0,0,0-2.31,0V3.3h2.31Z"/><path class="cls-1" d="M28.68,1.23a1.16,1.16,0,0,0-2.31,0V3.3h2.31Z"/><path class="cls-1" d="M13.63,1.23a1.16,1.16,0,0,0-2.31,0V3.3h2.31Z"/><path class="cls-1" d="M9.06,1.23a1.16,1.16,0,0,0-2.31,0V3.3H9.06Z"/></svg>