<svg id="Capa_2" data-name="Capa 2" xmlns="http://www.w3.org/2000/svg" viewBox="0 0 24 24"><defs><style>.cls-1{fill:none;stroke:#000;stroke-miterlimit:10;stroke-width:1.5px;}</style></defs><circle class="cls-1" cx="12.22" cy="12.55" r="9.59"/><path d="M13.11,17.41v1.33H11.27V17.41A3.8,3.8,0,0,1,8.12,14H10c.1,0,.13,0,.15.13a2,2,0,0,0,.32.81,1.49,1.49,0,0,0,.82.56V13.27c-.21,0-.41-.07-.6-.12A3.41,3.41,0,0,1,9,12.34a2.15,2.15,0,0,1-.7-1.5A2.52,2.52,0,0,1,8.86,9a3.4,3.4,0,0,1,1.53-1c.28-.1.58-.16.88-.25V6.36H13.1v1.3a3.28,3.28,0,0,1,3,3.1l-.15,0H14.35c-.12,0-.16,0-.18-.16a1.27,1.27,0,0,0-.92-1l-.13,0v2c.35.07.69.12,1,.21a3,3,0,0,1,1.57.86,2.29,2.29,0,0,1,.58,1.93,3.07,3.07,0,0,1-1.68,2.35,3.25,3.25,0,0,1-1.43.45Zm0-1.92a1.71,1.71,0,0,0,1-.48.72.72,0,0,0,0-1,1.51,1.51,0,0,0-1-.39ZM11.26,9.6a1.41,1.41,0,0,0-.64.27.78.78,0,0,0-.28.91.92.92,0,0,0,.92.48Z"/></svg>