<svg id="Capa_1" data-name="Capa 1" xmlns="http://www.w3.org/2000/svg" viewBox="0 0 40 40"><defs><style>.cls-1{fill:#fe3231;}</style></defs><title>ICONOS LA BANDERA</title><path class="cls-1" d="M20,0C10.69,0,3.16,1.05,3.16,8.42v21a6.29,6.29,0,0,0,2.1,4.68v3.74A2.12,2.12,0,0,0,7.37,40h2.1a2.11,2.11,0,0,0,2.11-2.11v-2.1H28.42v2.1A2.11,2.11,0,0,0,30.53,40h2.1a2.12,2.12,0,0,0,2.11-2.11V34.15a6.29,6.29,0,0,0,2.1-4.68v-21C36.84,1.05,29.31,0,20,0ZM10.53,31.58a3.16,3.16,0,1,1,3.15-3.16A3.15,3.15,0,0,1,10.53,31.58Zm18.94,0a3.16,3.16,0,1,1,3.16-3.16A3.15,3.15,0,0,1,29.47,31.58ZM32.63,19H7.37V8.42H32.63Z"/></svg>