<svg id="Capa_2" data-name="Capa 2" xmlns="http://www.w3.org/2000/svg" viewBox="0 0 150 150"><defs><style>.cls-1{fill:#336;}</style></defs><path class="cls-1" d="M79.86,9.21c3.07.69,6.29,1,9.19,2.13C103.1,16.75,111.13,27,113,42c.18,1.52.1,3.08.22,4.61.21,2.7.83,5.43.67,8.1-.3,4.85-.71,9.67-.78,14.53a6.73,6.73,0,0,1-6.35,6.45c-2.59.2-5.21,0-7.81.16a3,3,0,0,0-1.7.78c-1.93,1.68-3.8,3.41-5.67,5.16a1.85,1.85,0,0,0-.68,1.08c-.07,2.21,0,4.43,0,6.74,3.08.91,6.1,1.79,9.11,2.7A69.67,69.67,0,0,1,114.06,98c5.07,2.84,9.3,6.51,11.54,12.07a21.56,21.56,0,0,1,1.51,8.13q0,9.61,0,19.24c0,2.23-.9,3.13-3.1,3.13H60.67c-1.87,0-3.06-1-3.09-2.52s1.19-2.6,3.12-2.61h4.62c.08,0,.16,0,.39-.08.68-3,1.38-6,2.07-9,.58-2.5,1.19-5,1.68-7.5a6.1,6.1,0,0,0-.06-2.48c-.59-2.49-1.29-5-2-7.62L65,110.25c-1.86,1.21-3.32.85-4.34-1.1-2-3.82-3.93-7.66-6-11.62l-2.18.68a49.63,49.63,0,0,0-12.31,5.61c-5.46,3.63-8.36,8.58-8.18,15.28.13,4.91,0,9.83,0,14.74v1.56c1.57,0,3,0,4.53,0,1.91,0,3,1,3,2.56s-1.1,2.56-3,2.57c-2.26,0-4.53,0-6.79,0A2.53,2.53,0,0,1,27,137.68c0-6.67-.06-13.33,0-20,.09-7.77,3.8-13.57,10.07-17.88,5.2-3.58,11.08-5.64,17-7.48q4-1.23,8.11-2.36a1.21,1.21,0,0,0,1-1.43q-.1-2.62,0-5.25a1.74,1.74,0,0,0-.9-1.65,25.41,25.41,0,0,1-10.49-15c-.25-1-.71-1.14-1.59-1.14-5.08,0-8.88-2.6-9.76-7a30.88,30.88,0,0,1-.14-6.87c.06-1.94.47-3.88.49-5.82a35.7,35.7,0,0,1,3.3-15.41c5.9-12.2,15.59-19.23,29.06-21a8.79,8.79,0,0,0,1-.22Zm10.93,66.6H89.11c-3.71,0-7.43,0-11.14,0a6.51,6.51,0,0,1-1.65-.16,2.51,2.51,0,0,1,.37-4.91,10.86,10.86,0,0,1,1.4,0c5.3,0,10.6,0,15.89,0a1.48,1.48,0,0,0,1.66-1,43.85,43.85,0,0,0,1.61-4.3c1.13-4.28.56-8.67.64-13a1.29,1.29,0,0,0-.6-.87c-2.32-1.44-4.62-2.91-7-4.22a9.85,9.85,0,0,0-8.77-.48c-1.31.53-2.63,1-3.94,1.52-4.95,1.87-9.89,3.8-15.2,4.36-2,.21-4.06.28-6.17.42,0,2.74-.1,5.42,0,8.1A20.15,20.15,0,0,0,63.38,76C71.09,82.73,83.29,82.77,90.79,75.81Zm8.56,21.7c-2,3.95-4,7.75-5.91,11.54-1.09,2.09-2.53,2.44-4.51,1.12-.72-.48-1.45-.94-2.22-1.44C84.2,117,84.2,117,85.79,124.06c.07.33.15.66.23,1,.79,3.43,1.58,6.87,2.35,10.25H122c0-5.94,0-11.8,0-17.65a15.61,15.61,0,0,0-6.29-12.48C110.88,101.34,105.22,99.35,99.35,97.51ZM97.88,45.73c0-.53,0-.82,0-1.12a20.9,20.9,0,0,0-41.74,2.25c0,.81.33,1.07,1.08,1,2.62-.28,5.35-.2,7.86-.9A146,146,0,0,0,79,42.23a16.31,16.31,0,0,1,15.08,1.22C95.27,44.16,96.46,44.89,97.88,45.73ZM51,44.06a26.11,26.11,0,0,1,52.09,0l4.86.57A30.3,30.3,0,0,0,92.4,18.48c-11-6.09-22.1-5.72-32.61,1.2C50.93,25.52,46.56,34.1,46,44.64ZM83.1,135.35c-1.12-4.95-2.22-9.82-3.37-14.67-.06-.26-.59-.56-.92-.58-1.15-.07-2.3,0-3.46,0-.69,0-1,.25-1.12.9-.41,2-.86,3.91-1.31,5.87L71,135.35ZM68.37,84.74c0,1.76,0,3.3,0,4.83a1.49,1.49,0,0,0,.64,1q3.63,2.52,7.33,4.93a1.49,1.49,0,0,0,1.3,0c2.48-1.59,4.91-3.25,7.33-4.92.29-.2.66-.55.67-.84.07-1.6,0-3.2,0-5A26.86,26.86,0,0,1,68.37,84.74ZM77,114.94a9.9,9.9,0,0,1,1.54,0c1,.14,1.32-.32,1.53-1.22.58-2.44,1.29-4.86,1.87-7.31a1.42,1.42,0,0,0-.4-1.22,41.22,41.22,0,0,0-3.82-2.58,1.56,1.56,0,0,0-1.32,0c-1.29.76-2.47,1.69-3.75,2.46-.66.4-.68.81-.49,1.48.56,1.92,1,3.87,1.56,5.81C74.37,114.94,74.37,114.94,77,114.94ZM64.17,104.65l8.28-5.59c-2.32-1.57-4.46-3-6.62-4.46a1,1,0,0,0-.7-.18c-1.77.51-3.53,1-5.39,1.62ZM94.35,96c-1.83-.55-3.49-1.07-5.16-1.55a1,1,0,0,0-.72,0c-2.26,1.48-4.5,3-6.84,4.56l8.29,5.59ZM51,49.48c-3.55-.56-5.67,1.2-5.68,4.64,0,.55,0,1.1,0,1.66,0,3.27,2.35,5.11,5.68,4.44ZM103.14,60.2c3.45.63,5.64-1.14,5.67-4.48q0-1,0-1.92c-.06-3.18-2.49-5-5.67-4.27ZM101,70.63c1.79,0,3.49.07,5.17,0a1.93,1.93,0,0,0,1.89-2c.06-1.19,0-2.38,0-3.48l-5.48.54Z"/><path class="cls-1" d="M105.51,122.58c2,0,4,0,6,0a2.58,2.58,0,1,1,0,5.12c-4.09,0-8.19,0-12.29,0a2.57,2.57,0,1,1,0-5.12C101.32,122.56,103.42,122.58,105.51,122.58Z"/><rect class="cls-1" x="30.5" y="135.35" width="40.49" height="5.19"/></svg>