<svg id="Capa_2" data-name="Capa 2" xmlns="http://www.w3.org/2000/svg" viewBox="0 0 24 24"><defs><style>.cls-1{fill:#010201;}</style></defs><path class="cls-1" d="M22.9,7.65a25.51,25.51,0,0,0-.85,3c-.48,1.71-.92,3.43-1.37,5.14a1,1,0,0,1-.91.85c-.2,0-.23.1-.23.27q0,1.37,0,2.73c0,.2.06.28.27.26s.67,0,1,0,.38.1.37.33a.32.32,0,0,1-.37.34H3.15c-.24,0-.38-.11-.38-.33s.14-.34.37-.34c.65,0,1.31,0,2,0,.37,0,.45-.1.44-.46,0-.78,0-1.56,0-2.34,0-.27,0-.44-.38-.49-.69-.1-1-.65-1.19-1.34-.17.93-.35,1.79-.5,2.66A1.21,1.21,0,0,1,2,19a1.21,1.21,0,0,1-.84-1.53c.27-1.43.54-2.87.8-4.31a1.28,1.28,0,0,1,1.44-1.25c.52,0,1.18.23,1.52-.09s.28-.95.39-1.44.24-1.15.39-1.71a1.75,1.75,0,0,1,3.38.87c-.39,1.48-.79,3-1.19,4.45.39.07.59-.11.68-.51.47-2.13,1-4.27,1.42-6.4A1.47,1.47,0,0,1,11.7,5.88a1.44,1.44,0,0,1,1.07,1.9l-2.13,8a1,1,0,0,1-.89.86c-.21,0-.25.11-.25.3,0,.89,0,1.78,0,2.68,0,.24.09.28.3.28h5.46c.19,0,.29,0,.28-.25,0-.91,0-1.82,0-2.73,0-.1.05-.25-.12-.26-.88-.07-1.25-.63-1.39-1.44-.19.95-.37,1.9-.58,2.84A1.16,1.16,0,0,1,12,19a1.18,1.18,0,0,1-.88-1.43c.19-1.08.41-2.15.61-3.23L12,13.06A1.23,1.23,0,0,1,13.3,12c.44,0,.89,0,1.34,0,.26,0,.35-.09.4-.34.19-.9.4-1.79.6-2.69a1.78,1.78,0,0,1,1.42-1.48,1.71,1.71,0,0,1,1.83.83,1.56,1.56,0,0,1,.2,1.23c-.4,1.5-.79,3-1.2,4.51.45.1.61-.17.7-.58.46-2.1.93-4.21,1.4-6.31a1.45,1.45,0,0,1,2.84-.21s.05,0,.07.06ZM5.2,14H6.44a.89.89,0,0,0,.92-.68c.35-1.32.71-2.63,1-3.95a1.08,1.08,0,0,0-.53-1.18,1.12,1.12,0,0,0-1.32.21,1.53,1.53,0,0,0-.31.73c-.24,1-.46,2-.68,3a.47.47,0,0,1-.55.45c-.56,0-1.12,0-1.67,0a.64.64,0,0,0-.75.61c-.26,1.47-.53,2.94-.81,4.4-.07.37,0,.66.38.73s.55-.19.62-.55c.21-1.12.45-2.24.65-3.36.06-.33.21-.43.51-.42Zm10,0h1.15a.92.92,0,0,0,1.06-.81c.32-1.21.65-2.41,1-3.62a1.08,1.08,0,0,0-.73-1.47,1.1,1.1,0,0,0-1.37,1c-.22,1-.45,2-.66,3a.55.55,0,0,1-.66.51c-.54,0-1.08,0-1.63,0s-.62.17-.7.6c-.26,1.46-.55,2.92-.82,4.39-.07.34-.06.66.36.75s.58-.22.65-.58c.2-1.06.41-2.12.6-3.18.07-.41.22-.62.68-.58A10.07,10.07,0,0,0,15.21,14ZM17.49,16h1.34c1.31,0,1,.18,1.37-1.05.67-2.45,1.31-4.9,2-7.35a.8.8,0,0,0-.6-1.05c-.44-.09-.81.22-.94.81-.45,2.07-.91,4.14-1.36,6.22a1.24,1.24,0,0,1-1.47,1.16H15.64c-.54,0-.87.24-.85.62a.69.69,0,0,0,.83.65C16.24,15.94,16.87,16,17.49,16Zm-10,0h0c.66,0,1.31,0,2,0a.48.48,0,0,0,.56-.44c.28-1.12.6-2.23.9-3.35.42-1.52.82-3.06,1.23-4.59a.8.8,0,0,0-.27-.93.74.74,0,0,0-.89,0,1.05,1.05,0,0,0-.4.78c-.46,2.08-.91,4.15-1.37,6.23a1.18,1.18,0,0,1-1.31,1.05H5.49c-.47,0-.72.24-.72.63s.28.62.75.62Zm8.73,2.29c0,.44,0,.89,0,1.34,0,.23.07.3.29.29.71,0,1.41,0,2.11,0,.21,0,.27-.06.27-.27q0-1.36,0-2.73c0-.17,0-.25-.24-.25H16.48c-.21,0-.28.08-.27.28C16.22,17.37,16.21,17.81,16.21,18.26Zm-7.38,0c0-.44,0-.89,0-1.34,0-.2,0-.32-.27-.31H6.45c-.17,0-.26,0-.26.24,0,.91,0,1.81,0,2.72,0,.24.08.3.3.29q1,0,2,0c.24,0,.34-.05.32-.31C8.81,19.15,8.83,18.72,8.83,18.29Z"/><path class="cls-1" d="M10.08,5.31A1.85,1.85,0,0,1,8.22,7.15,1.92,1.92,0,0,1,6.36,5.29a1.87,1.87,0,0,1,1.9-1.85A1.83,1.83,0,0,1,10.08,5.31Zm-.67,0A1.16,1.16,0,0,0,8.3,4.11,1.19,1.19,0,0,0,7,5.26,1.24,1.24,0,0,0,8.19,6.48,1.19,1.19,0,0,0,9.41,5.34Z"/><path class="cls-1" d="M18.26,3.44a1.84,1.84,0,0,1,1.86,1.82,1.87,1.87,0,0,1-1.87,1.89,1.91,1.91,0,0,1-1.86-1.86A1.88,1.88,0,0,1,18.26,3.44Zm1.19,1.84a1.18,1.18,0,0,0-1.2-1.17A1.2,1.2,0,0,0,17.07,5.3a1.26,1.26,0,0,0,1.21,1.18A1.21,1.21,0,0,0,19.45,5.28Z"/></svg>