<svg id="Capa_2" data-name="Capa 2" xmlns="http://www.w3.org/2000/svg" viewBox="0 0 24 24"><defs><style>.cls-1{fill:none;stroke:#000;stroke-miterlimit:10;stroke-width:1.5px;}</style></defs><circle class="cls-1" cx="12" cy="12" r="9.58"/><path d="M8.36,15.29V14.11c-.44,0-.86,0-1.28,0s-.54-.17-.51-.55-.06-.67.46-.74c1.31-.18,1.28-.21,1.37-1.51a17.45,17.45,0,0,1,.34-2.6c.55-2.37,2.07-3.39,4.68-3.14a4,4,0,0,1,3.74,4.3,4.1,4.1,0,0,1-3.8,4.18,24.15,24.15,0,0,1-2.69,0c-.44,0-.55.17-.55.57s.1.59.54.58c.86,0,1.72,0,2.57,0,.43,0,.61.1.61.57s-.24.55-.63.54c-.84,0-1.67,0-2.51,0-.46,0-.6.15-.58.59,0,.62,0,1.24,0,1.86,0,.42-.18.56-.55.51s-.88.23-.93-.47-.12-1.19-.11-1.79-.21-.77-.76-.7c-.25,0-.51,0-.77,0s-.56-.08-.47-.41A.81.81,0,0,1,7,15.44,8.08,8.08,0,0,1,8.36,15.29Zm3.44-2.67c.24,0,.61,0,1,0a2.71,2.71,0,0,0,2.59-3.1A2.62,2.62,0,0,0,13,7.21a2.15,2.15,0,0,0-2.52,1.85,10.36,10.36,0,0,0-.26,2.15C10.2,12.78,9.9,12.67,11.8,12.62Z"/></svg>