<?xml version="1.0"?>
<svg xmlns="http://www.w3.org/2000/svg" xmlns:xlink="http://www.w3.org/1999/xlink" xmlns:svgjs="http://svgjs.com/svgjs" version="1.1" width="512" height="512" x="0" y="0" viewBox="0 0 511 511.99982" style="enable-background:new 0 0 512 512" xml:space="preserve" class=""><g><path xmlns="http://www.w3.org/2000/svg" d="m492.453125 76c11.046875 0 20-8.953125 20-20v-1c0-30.324219-24.675781-55-54.902344-55-1.023437-.0195312-26.691406 0-55.945312 11.351562-34.519531 13.390626-60.230469 36.914063-75.15625 68.519532l-87.375-8.882813c-24.039063-2.445312-47.628907 5.964844-64.664063 23.027344l-150.570312 150.007813c-31.128906 31.179687-31.117188 81.898437.023437 113.066406l113.253907 113.347656c4.851562 9.269531 14.4375 19.515625 32.90625 28.015625 18.980468 8.734375 42.929687 13.546875 67.429687 13.546875 24.503906 0 48.449219-4.8125 67.433594-13.546875 7.085937-3.261719 12.859375-6.78125 17.566406-10.402344 4.707031 3.621094 10.484375 7.140625 17.570313 10.402344 18.980468 8.734375 42.929687 13.546875 67.429687 13.546875 24.503906 0 48.449219-4.8125 67.429687-13.546875 32.6875-15.046875 37.570313-35.5625 37.570313-46.453125v-155c0-10.890625-4.882813-31.40625-37.570313-46.449219-8.984374-4.136719-19.09375-7.382812-29.839843-9.664062l-8.929688-61.25c15.886719-8.859375 31.058594-20.117188 43.648438-34.421875 7.296875-8.292969 6.492187-20.929688-1.800781-28.226563-8.289063-7.296875-20.929688-6.492187-28.226563 1.800781-5.894531 6.695313-12.652344 12.558594-19.917969 17.6875l-4.574218-31.359374c-1.324219-9.074219-8.644532-16.085938-17.769532-17.015626l-37.65625-3.824218c10.589844-15.625 25.667969-27.410156 45.078125-35.171875 22.34375-8.9375 42.335938-9.105469 42.558594-9.105469 8.269531 0 15 6.730469 15 15v1c0 11.046875 8.953125 20 20 20zm-255 396c-23.722656 0-42.433594-5.660156-53.609375-11.355469-.117188-.121093-.21875-.253906-.339844-.371093l-11.050781-11.0625v-28.6875c18.574219 8.050781 41.527344 12.476562 65 12.476562.746094 0 1.492187-.003906 2.234375-.011719 11.046875-.132812 19.894531-9.191406 19.765625-20.234375-.128906-10.964844-9.058594-19.765625-19.996094-19.765625-.078125 0-.160156 0-.238281 0-.585938.007813-1.175781.011719-1.765625.011719-37.066406 0-61.917969-13.816406-64.875-20 2.957031-6.183594 27.808594-20 64.875-20 16.808594 0 34.082031 3.242188 47.394531 8.890625 12.875 5.464844 17.046875 10.953125 17.605469 12.378906v77.4375c-2.277344 6.023438-27.332031 20.292969-65 20.292969zm235-174.707031v154.414062c-2.28125 6.023438-27.335937 20.292969-65 20.292969s-62.71875-14.269531-65-20.292969v-31.183593c18.574219 8.050781 41.527344 12.476562 65 12.476562.757813 0 1.511719-.003906 2.265625-.015625 11.042969-.144531 19.878906-9.21875 19.730469-20.261719-.144531-11.046875-9.21875-19.898437-20.261719-19.734375-.578125.007813-1.15625.011719-1.734375.011719-37.671875 0-62.726563-14.269531-65-20.296875v-28.164063c18.574219 8.046876 41.53125 12.460938 65 12.460938.757813 0 1.511719-.003906 2.265625-.015625 11.042969-.144531 19.878906-9.21875 19.730469-20.261719-.144531-10.957031-9.066407-19.734375-19.992188-19.734375-.089843 0-.179687 0-.269531 0-.578125.007813-1.15625.011719-1.734375.011719-37.066406 0-61.917969-13.816406-64.875-20 2.957031-6.183594 27.808594-20 64.875-20 37.664063 0 62.71875 14.269531 65 20.292969zm-80.210937-141.28125c-36.179688 13.789062-71.105469 15.976562-71.863282 16.019531-11.019531.589844-19.476562 9.996094-18.898437 21.019531.5625 10.675781 9.390625 18.953125 19.957031 18.953125.351562 0 .710938-.011718 1.066406-.03125 2.4375-.128906 36.777344-2.15625 75.628906-15.558594l5.925782 40.628907c-23.308594.421875-45.933594 5.171875-64.035156 13.503906-32.6875 15.046875-37.570313 35.5625-37.570313 46.453125 0 .550781.015625 1.125.039063 1.71875-.023438.425781-.039063.851562-.039063 1.28125v25.941406c-18.714844-8.351562-41.65625-12.941406-65-12.941406-24.5 0-48.449219 4.8125-67.429687 13.546875-32.6875 15.046875-37.570313 35.5625-37.570313 46.453125 0 .253906.007813.515625.011719.777344 0 .074218-.011719.148437-.011719.222656v35.179688l-80.292969-80.363282c-15.570312-15.582031-15.578125-40.941406-.050781-56.492187l150.570313-150.007813c8.539062-8.550781 20.335937-12.753906 32.351562-11.535156l102.652344 10.433594c.015625.003906.027344.003906.042968.003906l50.1875 5.101562zm0 0" fill="#fe3231" data-original="#000000" style=""/></g></svg>
