<svg id="Capa_2" data-name="Capa 2" xmlns="http://www.w3.org/2000/svg" viewBox="0 0 24 24"><defs><style>.cls-1{fill:#fff;}</style></defs><path class="cls-1" d="M12.84,13.46l.22.11,2.35,1.33a.74.74,0,1,0,.75-1.27L13.81,12.3l-.18-.11.17-.11c.78-.44,1.56-.87,2.33-1.32a.73.73,0,1,0-.7-1.29l-2.3,1.29-.29.16V8.1a1,1,0,0,0,0-.24A.74.74,0,0,0,12,7.27a.72.72,0,0,0-.66.73c0,.9,0,1.8,0,2.7v.22l-.21-.12L8.81,9.48a.74.74,0,0,0-1.06.28.73.73,0,0,0,.31,1l2.35,1.33.18.11-.17.11L8.09,13.61a.75.75,0,0,0-.41.81.74.74,0,0,0,1.12.48l2.41-1.35.16-.08v.22c0,.88,0,1.77,0,2.66a.73.73,0,1,0,1.46,0c0-.89,0-1.79,0-2.68Z"/><path d="M2.59,11.42c.05-.34.08-.68.14-1A9.41,9.41,0,0,1,21.19,10a9.26,9.26,0,0,1-1.33,7.15.73.73,0,0,1-.8.39.73.73,0,0,1-.46-1.13,8.61,8.61,0,0,0,1-2,7.94,7.94,0,1,0-3.52,4.45.74.74,0,0,1,1.15.42.75.75,0,0,1-.37.83A9.06,9.06,0,0,1,14,21.19c-.43.09-.87.13-1.3.19l-.14,0H11.41l-.14,0c-.44-.06-.89-.1-1.32-.19a9.41,9.41,0,0,1-7.21-7.54c-.06-.35-.1-.71-.15-1.06Z"/><path d="M12.84,13.46v.22c0,.89,0,1.79,0,2.68a.73.73,0,1,1-1.46,0c0-.89,0-1.78,0-2.66v-.22l-.16.08L8.8,14.9a.74.74,0,0,1-1.12-.48.75.75,0,0,1,.41-.81l2.33-1.31.17-.11-.18-.11L8.06,10.75a.73.73,0,0,1-.31-1,.74.74,0,0,1,1.06-.28l2.35,1.32.21.12V10.7c0-.9,0-1.8,0-2.7A.72.72,0,0,1,12,7.27a.74.74,0,0,1,.79.59,1,1,0,0,1,0,.24v2.82l.29-.16,2.3-1.29a.73.73,0,1,1,.7,1.29c-.77.45-1.55.88-2.33,1.32l-.17.11.18.11,2.35,1.33a.74.74,0,1,1-.75,1.27l-2.35-1.33Z"/></svg>