<svg id="Capa_2" data-name="Capa 2" xmlns="http://www.w3.org/2000/svg" viewBox="0 0 70 70"><defs><style>.cls-1{fill:#336;}</style></defs><path class="cls-1" d="M37.82,65a5.45,5.45,0,0,1-3.2-1.83,4.07,4.07,0,0,1-.66-1c-.16-.43-.41-.51-.84-.51H18.33a1.93,1.93,0,0,1-1.72-.75C13.83,57.12,11,53.43,8.29,49.61A11.81,11.81,0,1,1,29.8,43.77a12,12,0,0,1-2.48,6.47c-2,2.62-3.91,5.26-5.9,7.95a2.19,2.19,0,0,0,.39.06H33.28a.59.59,0,0,0,.62-.4,5,5,0,0,1,9.18,0,.6.6,0,0,0,.63.39c3.83,0,7.65,0,11.48,0a5.13,5.13,0,0,0,4.47-7.8A4.87,4.87,0,0,0,55.41,48h-.28a2.12,2.12,0,0,0-2.44,1.2,4.43,4.43,0,0,1-4.46,2.15,4.85,4.85,0,0,1-4.15-2.85.74.74,0,0,0-.79-.51,34.55,34.55,0,0,1-4.2-.11,6.72,6.72,0,0,1,0-13.27,9.32,9.32,0,0,1,1.4-.1h8.12c-.17-.24-.27-.4-.39-.56-1.85-2.5-3.73-5-5.56-7.5a11.53,11.53,0,0,1-1.16-12.6,11.8,11.8,0,0,1,22.2,3.8,3.54,3.54,0,0,0,.11.44v2.25a1.06,1.06,0,0,0-.09.25A11,11,0,0,1,61.62,26c-2.65,3.61-5.34,7.19-8,10.81A2.41,2.41,0,0,1,51.5,37.9q-5.62,0-11.25,0a3.37,3.37,0,1,0,0,6.73c1.09,0,2.18,0,3.26,0a.64.64,0,0,0,.49-.3,5.08,5.08,0,0,1,9.29,0,.67.67,0,0,0,.48.31c.64,0,1.28,0,1.91,0a8.21,8.21,0,0,1,7.26,4.72,18.43,18.43,0,0,1,.9,2.81V54a1.14,1.14,0,0,0-.09.26,8.57,8.57,0,0,1-8.78,7.4c-3.69-.07-7.38,0-11.08,0a.74.74,0,0,0-.84.51,4,4,0,0,1-.65,1A5.45,5.45,0,0,1,39.17,65ZM52,33.4c.08-.14.11-.21.15-.27q3.27-4.4,6.53-8.8A8.44,8.44,0,0,0,50.53,10.9a8.38,8.38,0,0,0-6.31,11.43,20.53,20.53,0,0,0,2.23,3.55C48.25,28.37,50.1,30.82,52,33.4ZM18,57.08a2.64,2.64,0,0,0,.2-.22c2.17-2.92,4.34-5.83,6.49-8.76a8.43,8.43,0,0,0-9.3-13.16A8.37,8.37,0,0,0,11,47.48c.91,1.42,2,2.74,3,4.1C15.25,53.4,16.61,55.21,18,57.08ZM50.3,46.32A1.68,1.68,0,1,0,48.62,48,1.7,1.7,0,0,0,50.3,46.32ZM40.18,59.93a1.69,1.69,0,1,0-1.67,1.69A1.7,1.7,0,0,0,40.18,59.93Z"/><path class="cls-1" d="M57.05,19.2a5.06,5.06,0,1,1-5-5A5.1,5.1,0,0,1,57.05,19.2Zm-3.37,0A1.69,1.69,0,1,0,52,20.89,1.7,1.7,0,0,0,53.68,19.22Z"/><path class="cls-1" d="M18,37.89A5.06,5.06,0,1,1,13,43,5.1,5.1,0,0,1,18,37.89Zm-.06,6.74a1.68,1.68,0,1,0-1.6-1.76A1.7,1.7,0,0,0,17.93,44.63Z"/></svg>