<svg id="Capa_1" data-name="Capa 1" xmlns="http://www.w3.org/2000/svg" viewBox="0 0 40 40"><defs><style>.cls-1{fill:#fe3231;}</style></defs><title>ICONOS LA BANDERA</title><path class="cls-1" d="M1.77,9.06,0,17.93V27H4a4.3,4.3,0,0,0,8.56,0H27.44A4.3,4.3,0,0,0,36,27h4v-18Zm.83,7.81,1.1-5.46H8.59v5.46ZM8.28,28.59a1.95,1.95,0,1,1,2-1.95A1.95,1.95,0,0,1,8.28,28.59ZM18.83,16.87H10.94V11.41h7.89Zm10.15,0H21.17V11.41H29Zm2.74,11.72a1.95,1.95,0,1,1,2-1.95A1.95,1.95,0,0,1,31.72,28.59Zm5.94-11.72H31.33V11.41h6.33Z"/></svg>