<svg id="Capa_2" data-name="Capa 2" xmlns="http://www.w3.org/2000/svg" viewBox="0 0 150 150"><defs><style>.cls-1{fill:#336;stroke:#336;stroke-miterlimit:10;}</style></defs><path class="cls-1" d="M54.43,86.37l15.19,18.69c2.91-5.16,3-9.92.23-14.94H80.3c-2.68,5-2.59,9.77.31,15.09C85.25,99.31,89.69,93.62,94.2,88c.54-.67,1.42-1.61,2.09-1.56,4.32.31,8.64.71,12.92,1.37a17.1,17.1,0,0,1,12.37,8,75,75,0,0,1,6.7,14.11c1.9,5.36.05,10.33-5.14,12.8a62.87,62.87,0,0,1-16.5,5.52C83.45,132,60.23,132.1,37.2,126.8a39.64,39.64,0,0,1-10.05-4c-5.14-2.85-6.9-7.53-5.24-13.15a60.67,60.67,0,0,1,3.4-8.71c3.94-8.32,10.4-13.19,19.75-13.87Z"/><path class="cls-1" d="M75.44,17.6c13.16,0,22.09,6,25.35,16.95a34.2,34.2,0,0,1,1,5c.47,3.42.55,6.78,1.62,10.23A13.55,13.55,0,0,1,100,63.53a12.84,12.84,0,0,0-1.88,3.39C95.24,73.14,91.49,78.7,85.88,82.8c-7.22,5.26-14.9,5.32-22.17.13-5.84-4.17-9.61-10-12.62-16.35A13.86,13.86,0,0,0,48.56,63c-3.42-3.56-4.07-11.49-1.7-15.84,1-1.91,1.27-4.41,1.42-6.67C49.33,24.62,62.05,17.22,75.44,17.6ZM91.63,43.39c-3.84-2.09-7.21-3.27-11.35-2.7a44.46,44.46,0,0,1-13.43,0c-7.21-1.23-11.37.82-13.62,7.87a4.68,4.68,0,0,1-.79,1.89c-2.68,2.59-3.18,8.38-.16,10.41,2.38,1.61,2.76,3.95,4.1,5.92,2.38,3.47,4.51,7.26,7.49,10.14,6.9,6.66,15.4,6.59,22-.37,3.38-3.58,5.6-8.26,8.39-12.41a9.27,9.27,0,0,1,2.2-2.46c2.3-1.59,4.17-8.73,2.06-10.13-2.62-1.74-2.62-4.47-4-6.63-.75-1.19-1.5-2.38-2.29-3.54-.13-.21-.46-.27-.92-.52C91.42,41.66,91.5,42.3,91.63,43.39Z"/></svg>