<svg id="Capa_2" data-name="Capa 2" xmlns="http://www.w3.org/2000/svg" viewBox="0 0 70 70"><defs><style>.cls-1{fill:#336;}</style></defs><path class="cls-1" d="M38,61.75c-2.54,1.24-4.58.33-5.83-2.66-.36-.86-.39-1.87-.8-2.7a4.69,4.69,0,0,0-1.71-2.09c-2.8-1.4-2.95-2.44-.38-4.32a1.34,1.34,0,0,0,.21-.26c-3.07-3.71-2.38-7.54-.35-11.43l-5.35.91a2.83,2.83,0,0,1-3.2-1.66,2.83,2.83,0,0,0-3.13-1.69c-1.24.08-2.5,0-3.75,0a4.93,4.93,0,0,1-4.5-3.61,10.48,10.48,0,0,1,.36-3l.52-.2c-1.23-.88-2.45-1.78-3.7-2.64a1.59,1.59,0,0,1-.67-2.11c.69-1.76,1.36-3.52,2-5.29a12.27,12.27,0,0,1,4-5.26A3.77,3.77,0,0,1,14,12.88a2.46,2.46,0,0,1,1.81,1c.45.79,0,1.56-.86,2-.21.11-.4.24-.9.53l4.24-1.08A6.2,6.2,0,0,1,18.55,13a2.74,2.74,0,0,1,1.85-1.24A2.27,2.27,0,0,1,22.13,13a1.66,1.66,0,0,0,1.73,1.13,4.81,4.81,0,0,1,4.71,4.15c.23,1.24.7,1.7,2,1.32a18.08,18.08,0,0,1,3.9-.83,7.68,7.68,0,0,1,2.81.49,13.82,13.82,0,0,1,2.55,1.21,1.81,1.81,0,0,0,2.57-.55,1.33,1.33,0,0,0,.3-.86c-.21-1.54.15-2.25,1.36-2.58,1.77-.48,2.52-.13,3.15,1.51,1.67-.17,3.36-.36,5.06-.49a3.31,3.31,0,0,1,1.64.15,2.34,2.34,0,0,1,1.24,1.28c.08.39-.52.95-.86,1.4-.11.14-.34.19-.52.28,1.59.74,3.08,1.45,4.6,2.13a2.3,2.3,0,0,1,1.51,2.44c-.07.95.18,1.51,1.23,1.71s2,.66,2.16,1.9-.64,1.89-1.56,2.45l-1.51.94c1.36,2.43,1.07,3.13-1.54,4.3l-.35,3c.4.31,1.09.8,1.71,1.37A2.44,2.44,0,0,1,59.57,45a17.06,17.06,0,0,1-7.72,2.51c-.42,2.39-1.15,2.67-3.24,1.59a12.92,12.92,0,0,0-2.91-.74l.42,3.7h1.14c1,0,1.82.27,2.06,1.36A2,2,0,0,1,48.17,56a5.16,5.16,0,0,0-2.63,2.08c-.57.84-1.92,1.12-2.87,1.74a6.45,6.45,0,0,0-1.58,1.41C40,62.63,39.43,62.76,38,61.75ZM11.83,16.92C9.69,19,9.43,22,8.25,24.32c1.29,1.25,2.51,2.38,3.66,3.59a1.86,1.86,0,0,1,0,2.78,1.14,1.14,0,0,0,0,1.7,2.59,2.59,0,0,0,2.3,1.17c1.12-.06,2.24,0,3.36,0,2.18,0,4,.61,5,2.7a1.42,1.42,0,0,0,1.2.53c1.78-.23,3.54-.66,5.33-.88a2.67,2.67,0,0,1,2.79,1.24c.58,1,0,1.9-.68,2.67-.12.12-.23.25-.34.38-1.42,1.77-1.42,5.64,0,7.39s1.47,2.64-.3,4.47a5.81,5.81,0,0,1,3.22,4.41,3.74,3.74,0,0,0,.36,1.36,7.08,7.08,0,0,0,1.67,2.07c.26.19,1.08-.38,1.64-.61.16-.06.34-.19.48-.16,1.44.37,2.35-.68,3.43-1.28a14,14,0,0,0,2.52-1.56,8,8,0,0,0,1.25-1.85c-.35-.47-1.12-1-1.13-1.57a5.42,5.42,0,0,0-3.09-5,1.88,1.88,0,0,1-.53-1.77,2.13,2.13,0,0,1,1.74-.88c2.33.35,4.62.92,6.93,1.41h.12l-.11-.33a13.44,13.44,0,0,1,3.25-1.11c2.35-.18,4.23-1.43,6.53-2.34-.78-.6-1.31-1.09-1.92-1.47-2-1.23-2.14-1.87-.93-3.81-.67-.79-1.3-1.73-.27-2.55a10.41,10.41,0,0,1,2.64-1.1C57,31.89,57,31.77,60.65,29c-2.58-.09-3.13-1.65-3.14-3.67,0-.26-.39-.64-.69-.76-1.69-.72-3.39-1.43-5.13-2-1.23-.43-2.34-.87-2.27-2.37H45.1c-1.47,2.34-3.45,4-6.53,2.27-.15-.09-.35-.1-.48-.2-2.15-1.77-4.45-1.12-6.8-.49-3,.79-4.22,0-5-3a3,3,0,0,0-2.86-2.46c-.84-.08-1.66-.23-2.49-.34-1.15,2.21-3.65,1.8-5.62,2.66.31.82.61,1.57.89,2.33A12.93,12.93,0,0,1,17,23.21a3.25,3.25,0,0,1-2.58,3.35,2.43,2.43,0,0,1-2.92-2.37A6.32,6.32,0,0,1,12,20.85,3.49,3.49,0,0,0,11.83,16.92ZM14.24,22l-.38,0v2.29C15.28,23.52,14.56,22.77,14.24,22Z"/><path class="cls-1" d="M9.88,40.71H22.06l0,0a2,2,0,0,1,1.67,2.11c0,1,0,2.11,0,3.16,0,.14,0,.21.18.25a1.87,1.87,0,0,1,.92.62,2.2,2.2,0,0,1,.46,1v1.21a.08.08,0,0,0,0,0,1.18,1.18,0,0,1-1.26.93h-.28v.27c0,1.88,0,3.77,0,5.65a1.8,1.8,0,0,1-1.21,1.71.44.44,0,0,0-.34.49,1.15,1.15,0,0,1-1.25,1.22H19.56a1.18,1.18,0,0,1-1.26-1.26v-.28H13.63c0,.14,0,.27,0,.4a1.15,1.15,0,0,1-1.11,1.14c-.55,0-1.11,0-1.66,0a1.13,1.13,0,0,1-1.1-1.06c0-.17,0-.35,0-.52a2.07,2.07,0,0,1-1.55-2.19c0-1.78,0-3.57,0-5.35v-.22H7.83a1.17,1.17,0,0,1-1.2-1.2q0-.39,0-.78A1.92,1.92,0,0,1,8,46.26a.24.24,0,0,0,.2-.28c0-1.14,0-2.29,0-3.43a1.79,1.79,0,0,1,.65-1.35A2.24,2.24,0,0,1,9.88,40.71ZM16,45.38H11a1.19,1.19,0,0,0-1.3,1.3v3.63a1.49,1.49,0,0,0,0,.43,1.17,1.17,0,0,0,1.24.87h9.88a1.51,1.51,0,0,0,.42,0,1.15,1.15,0,0,0,.87-1.21V46.64a1.74,1.74,0,0,0-.05-.39,1.16,1.16,0,0,0-1.2-.87Zm0-3.11H12.65c-.35,0-.71,0-1.06,0a1.16,1.16,0,0,0-.82,1.87,1.22,1.22,0,0,0,1.06.46h8.39a1.17,1.17,0,1,0,0-2.34ZM11.7,55.5a1.17,1.17,0,1,0-1.17-1.15A1.17,1.17,0,0,0,11.7,55.5Zm9.71-1.17a1.17,1.17,0,0,0-1.15-1.16,1.17,1.17,0,1,0,0,2.33A1.17,1.17,0,0,0,21.41,54.33Z"/></svg>